п»ї<svg xmlns="http://www.w3.org/2000/svg" width="149" height="41.072" viewBox="0 0 149 41.072">
  <g id="ГђВЎГђВіГ‘ВЂГ‘ВѓГђВїГђВїГђВёГ‘ВЂГђВѕГђВІГђВ°Г‘В‚Г‘ВЊ_961" data-name="ГђВЎГђВіГ‘ВЂГ‘ВѓГђВїГђВїГђВёГ‘ВЂГђВѕГђВІГђВ°Г‘В‚Г‘ВЊ 961" transform="translate(-233.635 321.181)">
    <path id="ГђВљГђВѕГђВЅГ‘В‚Г‘ВѓГ‘ВЂ_7462" data-name="ГђВљГђВѕГђВЅГ‘В‚Г‘ВѓГ‘ВЂ 7462" d="M239.422-285.339h2.494c4.653,0,4.994-2.835,4.994-6.807,0-4.028-.737-6.129-4.935-6.129h-2.553Zm0-18.037h2.608c3.858,0,4.879-1.988,4.879-5.674,0-3.576-1.306-5.446-5.107-5.446h-2.381Zm-5.787-16.567h8.453c7.486,0,10.268,4.936,10.268,10.211v1.473c0,4.313-1.419,5.9-3.973,7.492,2.722,1.3,3.973,3.744,3.973,7.938v2.272c0,7.034-3.348,11-10.836,11h-7.885Z" transform="translate(0 -0.897)" fill="#7C2629" fill-rule="evenodd"/>
    <rect id="ГђВџГ‘ВЂГ‘ВЏГђВјГђВѕГ‘ВѓГђВіГђВѕГђВ»Г‘ВЊГђВЅГђВёГђВє_4884" data-name="ГђВџГ‘ВЂГ‘ВЏГђВјГђВѕГ‘ВѓГђВіГђВѕГђВ»Г‘ВЊГђВЅГђВёГђВє 4884" width="5.786" height="40.389" transform="translate(257.976 -320.84)" fill="#7C2629"/>
    <path id="ГђВљГђВѕГђВЅГ‘В‚Г‘ВѓГ‘ВЂ_7463" data-name="ГђВљГђВѕГђВЅГ‘В‚Г‘ВѓГ‘ВЂ 7463" d="M468.515-289.47a9.335,9.335,0,0,1-9.19,9.361c-4.423,0-9.531-2.155-9.531-9.53v-22.239a9.028,9.028,0,0,1,9.418-9.3c5.332,0,9.3,4.028,9.3,9.644v2.267H462.73v-1.925c0-2.271-1.362-4.2-3.577-4.2-2.891,0-3.573,1.984-3.573,4.708v20.651c0,2.323.909,4.137,3.52,4.137,1.587,0,3.63-.908,3.63-4.084v-1.986h5.785Z" transform="translate(-156.58)" fill="#7C2629" fill-rule="evenodd"/>
    <path id="ГђВљГђВѕГђВЅГ‘В‚Г‘ВѓГ‘ВЂ_7464" data-name="ГђВљГђВѕГђВЅГ‘В‚Г‘ВѓГ‘ВЂ 7464" d="M536.81-308.314H536.7l-2.838,14.634h5.786Zm-2.441-11.629h4.823l9.02,40.389h-5.786l-1.7-8.679h-7.884l-1.7,8.679h-5.79Z" transform="translate(-211.31 -0.897)" fill="#7C2629" fill-rule="evenodd"/>
    <path id="ГђВљГђВѕГђВЅГ‘В‚Г‘ВѓГ‘ВЂ_7465" data-name="ГђВљГђВѕГђВЅГ‘В‚Г‘ВѓГ‘ВЂ 7465" d="M624.392-301.9h3.29c4.031,0,4.653-2.27,4.653-6.294,0-4.087-.681-6.3-4.936-6.3h-3.008Zm-5.784-18.039h9.3c6.864,0,10.212,4.027,10.212,11.857,0,4.651-1.306,8.054-4.994,10.1l6.24,18.435h-6.125L627.855-296.8h-3.463v17.245h-5.784Z" transform="translate(-278.865 -0.897)" fill="#7C2629" fill-rule="evenodd"/>
    <path id="ГђВљГђВѕГђВЅГ‘В‚Г‘ВѓГ‘ВЂ_7466" data-name="ГђВљГђВѕГђВЅГ‘В‚Г‘ВѓГ‘ВЂ 7466" d="M712.093-285h2.664c3.236,0,4.483-1.588,4.483-5.047v-19.46c0-3.175-1.081-4.99-4.484-4.99h-2.664Zm-5.79-34.943h8.568c6.522,0,10.153,3.914,10.153,10.436v18.892c0,7.486-3.856,11.061-10.664,11.061H706.3Z" transform="translate(-342.389 -0.897)" fill="#7C2629" fill-rule="evenodd"/>
    <path id="ГђВљГђВѕГђВЅГ‘В‚Г‘ВѓГ‘ВЂ_7467" data-name="ГђВљГђВѕГђВЅГ‘В‚Г‘ВѓГ‘ВЂ 7467" d="M362.089-240.592v8.988a9.474,9.474,0,0,0,9.7,9.871,9.473,9.473,0,0,0,9.7-9.871v-8.988Z" transform="translate(-93.049 -58.377)" fill="#7C2629" fill-rule="evenodd"/>
    <path id="ГђВљГђВѕГђВЅГ‘В‚Г‘ВѓГ‘ВЂ_7468" data-name="ГђВљГђВѕГђВЅГ‘В‚Г‘ВѓГ‘ВЂ 7468" d="M381.492-302.31v-9a9.474,9.474,0,0,0-9.7-9.872,9.474,9.474,0,0,0-9.7,9.872v9Z" transform="translate(-93.049)" fill="#7C2629" fill-rule="evenodd"/>
  </g>
</svg>
